<?xml version="1.0"?>
<svg xmlns="http://www.w3.org/2000/svg" id="Calque_1" data-name="Calque 1" viewBox="0 0 452.01 103.81">
  <title>logo_takima_CMJN_horizontal</title>
  <path d="M79.94,155.39c-2.71-14.87-16.85-26.2-25.89-20.3s-1.55,15.45-1.55,15.45a6.05,6.05,0,0,1,5.1-6.28c7-1.55,9.09,5.34,9.09,5.34,3,9.82-7,12.25-7,12.25-17.8,5.08-25.07-22.19-13.2-33.7s26.8-1.69,26.8-1.69c28.44,18.78,29,50.14,28,62.26a33.89,33.89,0,0,0,4.6-33.61L95.42,129.52A33.92,33.92,0,0,0,51.18,111L25.6,121.4A33.92,33.92,0,0,0,7,165.64l6.46,15.8c4.15,4.51,8.85,5.51,14,6.15,7.82,1,16.72-4.87,15-10.53-2-6.57-7.27-3.35-7.27-3.35s2.23.59,2.08,3.76-3.83,3.31-3.83,3.31c-5.77-.48-5.22-5.05-5.22-5.05C29.6,165,44,166,47.35,174.18s-3.76,14.34-3.76,14.34c-8.61,7.42-17,8.71-23.36,8A34,34,0,0,0,46.4,212.23c11.42-4,16.89-9.26,16.89-9.26C83.55,183.86,82.65,170.26,79.94,155.39Zm-60.35,7.3C14,144.15,34,130,34,130c-10.62,10.92.42,25.23.42,25.23C22.83,153.42,19.59,162.69,19.59,162.69Zm36.29,30s5.62-12.4-2.57-22c0,0,11.72,3.82,18.18-5.1C71.49,165.6,70,183.89,55.88,192.67Z" transform="translate(-4.49 -108.42)" style="fill:#cb1667"/>
  <path d="M91.5,164.48c.68,17.64-6.68,31.15-11.2,37.73l7-2.86a35.28,35.28,0,0,0,5.69-3C96.19,180.94,91.5,164.48,91.5,164.48Z" transform="translate(-4.49 -108.42)" style="fill:#cb1667"/>
  <path d="M148.06,157.65a3.45,3.45,0,1,0,0-6.89h-4.43v-7.31a3.69,3.69,0,0,0-3.76-3.61,3.74,3.74,0,0,0-3.75,3.61v7.31h-2.23a3.45,3.45,0,1,0,0,6.89h2.23v20.94c0,6.74,4.45,11.1,11.35,11.1a3.46,3.46,0,1,0,0-6.9c-2.44,0-3.84-1.53-3.84-4.2V157.65Z" transform="translate(-4.49 -108.42)" style="fill:#FFFFFF"/>
  <path d="M193.79,149.64c-9,0-13.18,4.24-14.9,6.79a3.39,3.39,0,0,0,2.92,5.29,3.87,3.87,0,0,0,3-1.44h0c2.56-2.72,5-3.73,9-3.73,5.57,0,8.9,2.88,8.9,7.71v1.1H191.85c-9.76,0-15.82,4.71-15.82,12.29,0,7.79,5.85,12.45,15.65,12.45a16.24,16.24,0,0,0,11-3.8,3.68,3.68,0,0,0,7.34-.13V164.25C210,155.24,203.81,149.64,193.79,149.64Zm-1.94,22.28h10.84v2.29c0,6.31-5.28,9.14-10.5,9.14-3.91,0-8.56-1-8.56-5.71C183.63,172.66,188.78,171.92,191.85,171.92Z" transform="translate(-4.49 -108.42)" style="fill:#FFFFFF"/>
  <path d="M256.65,166.42l13-9.77a3.6,3.6,0,0,0-2.24-6.53,3.8,3.8,0,0,0-2.5.86L246.66,165V133.81a3.76,3.76,0,0,0-7.52,0v52.27a3.76,3.76,0,0,0,7.52,0v-12.3l3.92-3,14.28,17.3h0a4,4,0,0,0,3.17,1.57,3.64,3.64,0,0,0,3.76-3.61,3.19,3.19,0,0,0-.83-2.26Z" transform="translate(-4.49 -108.42)" style="fill:#FFFFFF"/>
  <path d="M302.13,150.12a3.65,3.65,0,0,0-3.75,3.61v32.35a3.76,3.76,0,0,0,7.51,0V153.73A3.65,3.65,0,0,0,302.13,150.12Z" transform="translate(-4.49 -108.42)" style="fill:#FFFFFF"/>
  <path d="M302.13,136.42c-2.74,0-4.26,1.51-4.26,4.24a4.27,4.27,0,0,0,8.53,0C306.4,137.93,304.88,136.42,302.13,136.42Z" transform="translate(-4.49 -108.42)" style="fill:#FFFFFF"/>
  <path d="M379,149.64c-5.42,0-9.55,1.64-12.31,4.88-2.7-3.12-7.49-4.88-13.42-4.88a14.44,14.44,0,0,0-9.94,3.58,3.77,3.77,0,0,0-7.48.51v32.35a3.76,3.76,0,0,0,7.52,0V166.4c0-7,2.87-10.1,9.31-10.1,7.74,0,9.32,3.81,9.32,9.54v20.24a3.76,3.76,0,0,0,7.51,0V164.81c0-5.65,3.2-8.51,9.49-8.51,6.65,0,9.49,2.85,9.49,9.54v20.24a3.76,3.76,0,0,0,7.51,0V164.81C396,157.89,393,149.64,379,149.64Z" transform="translate(-4.49 -108.42)" style="fill:#FFFFFF"/>
  <path d="M440.26,149.64c-9,0-13.18,4.24-14.9,6.79a3.39,3.39,0,0,0,2.92,5.29,3.86,3.86,0,0,0,3-1.44h0c2.55-2.72,5-3.73,9-3.73,5.57,0,8.9,2.88,8.9,7.71v1.1H438.32c-9.76,0-15.82,4.71-15.82,12.29,0,7.79,5.85,12.45,15.65,12.45a16.24,16.24,0,0,0,11-3.8,3.68,3.68,0,0,0,7.34-.13V164.25C456.5,155.24,450.28,149.64,440.26,149.64Zm-1.94,22.28h10.84v2.29c0,6.31-5.28,9.14-10.5,9.14-3.91,0-8.56-1-8.56-5.71C430.1,172.66,435.25,171.92,438.32,171.92Z" transform="translate(-4.49 -108.42)" style="fill:#FFFFFF"/>
</svg>
